<mxfile>
    <diagram id="2bcIbB1W4fU8qBgN0w6G" name="第 1 页">
        <mxGraphModel dx="865" dy="456" grid="1" gridSize="10" guides="1" tooltips="1" connect="1" arrows="1" fold="1" page="1" pageScale="1" pageWidth="827" pageHeight="1169" math="0" shadow="0">
            <root>
                <mxCell id="0"/>
                <mxCell id="1" parent="0"/>
                <mxCell id="C_AhAHpW7zwYLXLOmo2u-3" value="" style="edgeStyle=orthogonalEdgeStyle;rounded=1;orthogonalLoop=1;jettySize=auto;html=1;" parent="1" source="C_AhAHpW7zwYLXLOmo2u-1" target="C_AhAHpW7zwYLXLOmo2u-2" edge="1">
                    <mxGeometry relative="1" as="geometry"/>
                </mxCell>
                <mxCell id="C_AhAHpW7zwYLXLOmo2u-1" value="ROS_ws" style="rounded=1;whiteSpace=wrap;html=1;" parent="1" vertex="1">
                    <mxGeometry x="20" y="170" width="110" height="40" as="geometry"/>
                </mxCell>
                <mxCell id="C_AhAHpW7zwYLXLOmo2u-2" value="unitree_legged_control" style="rounded=1;whiteSpace=wrap;html=1;" parent="1" vertex="1">
                    <mxGeometry x="240" y="170" width="160" height="40" as="geometry"/>
                </mxCell>
                <mxCell id="C_AhAHpW7zwYLXLOmo2u-13" value="" style="edgeStyle=orthogonalEdgeStyle;rounded=1;orthogonalLoop=1;jettySize=auto;html=1;" parent="1" source="C_AhAHpW7zwYLXLOmo2u-4" target="C_AhAHpW7zwYLXLOmo2u-14" edge="1">
                    <mxGeometry relative="1" as="geometry">
                        <Array as="points">
                            <mxPoint x="430" y="140"/>
                            <mxPoint x="430" y="110"/>
                        </Array>
                    </mxGeometry>
                </mxCell>
                <mxCell id="C_AhAHpW7zwYLXLOmo2u-4" value="unitree_gazebo" style="rounded=1;whiteSpace=wrap;html=1;" parent="1" vertex="1">
                    <mxGeometry x="240" y="120" width="110" height="40" as="geometry"/>
                </mxCell>
                <mxCell id="C_AhAHpW7zwYLXLOmo2u-15" value="" style="edgeStyle=orthogonalEdgeStyle;rounded=1;orthogonalLoop=1;jettySize=auto;html=1;" parent="1" source="C_AhAHpW7zwYLXLOmo2u-5" target="C_AhAHpW7zwYLXLOmo2u-14" edge="1">
                    <mxGeometry relative="1" as="geometry">
                        <Array as="points">
                            <mxPoint x="430" y="90"/>
                            <mxPoint x="430" y="110"/>
                        </Array>
                    </mxGeometry>
                </mxCell>
                <mxCell id="C_AhAHpW7zwYLXLOmo2u-5" value="unitree_controller" style="rounded=1;whiteSpace=wrap;html=1;" parent="1" vertex="1">
                    <mxGeometry x="240" y="70" width="110" height="40" as="geometry"/>
                </mxCell>
                <mxCell id="C_AhAHpW7zwYLXLOmo2u-19" value="" style="edgeStyle=orthogonalEdgeStyle;rounded=1;orthogonalLoop=1;jettySize=auto;html=1;" parent="1" source="C_AhAHpW7zwYLXLOmo2u-6" target="C_AhAHpW7zwYLXLOmo2u-20" edge="1">
                    <mxGeometry relative="1" as="geometry">
                        <mxPoint x="610" y="240" as="targetPoint"/>
                    </mxGeometry>
                </mxCell>
                <mxCell id="C_AhAHpW7zwYLXLOmo2u-6" value="unitree_legged_msgs" style="rounded=1;whiteSpace=wrap;html=1;" parent="1" vertex="1">
                    <mxGeometry x="240" y="220" width="160" height="40" as="geometry"/>
                </mxCell>
                <mxCell id="C_AhAHpW7zwYLXLOmo2u-7" value="unitree_legged_real" style="rounded=1;whiteSpace=wrap;html=1;" parent="1" vertex="1">
                    <mxGeometry x="240" y="270" width="160" height="40" as="geometry"/>
                </mxCell>
                <mxCell id="C_AhAHpW7zwYLXLOmo2u-8" value="" style="edgeStyle=orthogonalEdgeStyle;rounded=1;orthogonalLoop=1;jettySize=auto;html=1;" parent="1" source="C_AhAHpW7zwYLXLOmo2u-1" target="C_AhAHpW7zwYLXLOmo2u-6" edge="1">
                    <mxGeometry relative="1" as="geometry">
                        <mxPoint x="140" y="170" as="sourcePoint"/>
                        <mxPoint x="240" y="190" as="targetPoint"/>
                        <Array as="points">
                            <mxPoint x="180" y="190"/>
                            <mxPoint x="180" y="240"/>
                        </Array>
                    </mxGeometry>
                </mxCell>
                <mxCell id="C_AhAHpW7zwYLXLOmo2u-9" value="" style="edgeStyle=orthogonalEdgeStyle;rounded=1;orthogonalLoop=1;jettySize=auto;html=1;" parent="1" source="C_AhAHpW7zwYLXLOmo2u-1" target="C_AhAHpW7zwYLXLOmo2u-7" edge="1">
                    <mxGeometry relative="1" as="geometry">
                        <mxPoint x="150" y="180" as="sourcePoint"/>
                        <mxPoint x="250" y="200" as="targetPoint"/>
                        <Array as="points">
                            <mxPoint x="180" y="190"/>
                            <mxPoint x="180" y="290"/>
                        </Array>
                    </mxGeometry>
                </mxCell>
                <mxCell id="C_AhAHpW7zwYLXLOmo2u-10" value="" style="edgeStyle=orthogonalEdgeStyle;rounded=1;orthogonalLoop=1;jettySize=auto;html=1;" parent="1" source="C_AhAHpW7zwYLXLOmo2u-1" target="C_AhAHpW7zwYLXLOmo2u-4" edge="1">
                    <mxGeometry relative="1" as="geometry">
                        <mxPoint x="160" y="190" as="sourcePoint"/>
                        <mxPoint x="260" y="210" as="targetPoint"/>
                        <Array as="points">
                            <mxPoint x="180" y="190"/>
                            <mxPoint x="180" y="140"/>
                        </Array>
                    </mxGeometry>
                </mxCell>
                <mxCell id="C_AhAHpW7zwYLXLOmo2u-11" value="" style="edgeStyle=orthogonalEdgeStyle;rounded=1;orthogonalLoop=1;jettySize=auto;html=1;" parent="1" source="C_AhAHpW7zwYLXLOmo2u-1" target="C_AhAHpW7zwYLXLOmo2u-5" edge="1">
                    <mxGeometry relative="1" as="geometry">
                        <mxPoint x="170" y="200" as="sourcePoint"/>
                        <mxPoint x="270" y="220" as="targetPoint"/>
                        <Array as="points">
                            <mxPoint x="180" y="190"/>
                            <mxPoint x="180" y="90"/>
                        </Array>
                    </mxGeometry>
                </mxCell>
                <mxCell id="C_AhAHpW7zwYLXLOmo2u-14" value="只有Gazebo的控制，可以说是几乎没法用 or 没用&lt;br&gt;看情况删除" style="rounded=1;whiteSpace=wrap;html=1;" parent="1" vertex="1">
                    <mxGeometry x="460" y="80" width="143" height="60" as="geometry"/>
                </mxCell>
                <mxCell id="C_AhAHpW7zwYLXLOmo2u-17" value="" style="edgeStyle=orthogonalEdgeStyle;rounded=1;orthogonalLoop=1;jettySize=auto;html=1;" parent="1" source="C_AhAHpW7zwYLXLOmo2u-2" target="C_AhAHpW7zwYLXLOmo2u-14" edge="1">
                    <mxGeometry relative="1" as="geometry">
                        <mxPoint x="360" y="150" as="sourcePoint"/>
                        <mxPoint x="440" y="100" as="targetPoint"/>
                        <Array as="points">
                            <mxPoint x="430" y="190"/>
                            <mxPoint x="430" y="110"/>
                        </Array>
                    </mxGeometry>
                </mxCell>
                <mxCell id="C_AhAHpW7zwYLXLOmo2u-20" value="MSG List" style="swimlane;fontStyle=0;childLayout=stackLayout;horizontal=1;startSize=26;horizontalStack=0;resizeParent=1;resizeParentMax=0;resizeLast=0;collapsible=0;marginBottom=0;rounded=1;shadow=0;glass=0;connectable=1;allowArrows=1;dropTarget=1;" parent="1" vertex="1">
                    <mxGeometry x="650" y="80" width="140" height="260" as="geometry"/>
                </mxCell>
                <mxCell id="C_AhAHpW7zwYLXLOmo2u-21" value="Cartesian.msg" style="text;strokeColor=none;fillColor=none;align=left;verticalAlign=top;spacingLeft=4;spacingRight=4;overflow=hidden;rotatable=0;points=[[0,0.5],[1,0.5]];portConstraint=eastwest;" parent="C_AhAHpW7zwYLXLOmo2u-20" vertex="1">
                    <mxGeometry y="26" width="140" height="26" as="geometry"/>
                </mxCell>
                <mxCell id="C_AhAHpW7zwYLXLOmo2u-22" value="HighCmd.msg" style="text;strokeColor=none;fillColor=none;align=left;verticalAlign=top;spacingLeft=4;spacingRight=4;overflow=hidden;rotatable=0;points=[[0,0.5],[1,0.5]];portConstraint=eastwest;" parent="C_AhAHpW7zwYLXLOmo2u-20" vertex="1">
                    <mxGeometry y="52" width="140" height="26" as="geometry"/>
                </mxCell>
                <mxCell id="C_AhAHpW7zwYLXLOmo2u-23" value="HighState.msg" style="text;strokeColor=none;fillColor=none;align=left;verticalAlign=top;spacingLeft=4;spacingRight=4;overflow=hidden;rotatable=0;points=[[0,0.5],[1,0.5]];portConstraint=eastwest;" parent="C_AhAHpW7zwYLXLOmo2u-20" vertex="1">
                    <mxGeometry y="78" width="140" height="26" as="geometry"/>
                </mxCell>
                <mxCell id="C_AhAHpW7zwYLXLOmo2u-27" value="IMU.msg" style="text;strokeColor=none;fillColor=none;align=left;verticalAlign=top;spacingLeft=4;spacingRight=4;overflow=hidden;rotatable=0;points=[[0,0.5],[1,0.5]];portConstraint=eastwest;" parent="C_AhAHpW7zwYLXLOmo2u-20" vertex="1">
                    <mxGeometry y="104" width="140" height="26" as="geometry"/>
                </mxCell>
                <mxCell id="C_AhAHpW7zwYLXLOmo2u-26" value="LED.msg" style="text;strokeColor=none;fillColor=none;align=left;verticalAlign=top;spacingLeft=4;spacingRight=4;overflow=hidden;rotatable=0;points=[[0,0.5],[1,0.5]];portConstraint=eastwest;" parent="C_AhAHpW7zwYLXLOmo2u-20" vertex="1">
                    <mxGeometry y="130" width="140" height="26" as="geometry"/>
                </mxCell>
                <mxCell id="C_AhAHpW7zwYLXLOmo2u-25" value="LowCmd.msg" style="text;strokeColor=none;fillColor=none;align=left;verticalAlign=top;spacingLeft=4;spacingRight=4;overflow=hidden;rotatable=0;points=[[0,0.5],[1,0.5]];portConstraint=eastwest;" parent="C_AhAHpW7zwYLXLOmo2u-20" vertex="1">
                    <mxGeometry y="156" width="140" height="26" as="geometry"/>
                </mxCell>
                <mxCell id="C_AhAHpW7zwYLXLOmo2u-24" value="LowState.msg" style="text;strokeColor=none;fillColor=none;align=left;verticalAlign=top;spacingLeft=4;spacingRight=4;overflow=hidden;rotatable=0;points=[[0,0.5],[1,0.5]];portConstraint=eastwest;" parent="C_AhAHpW7zwYLXLOmo2u-20" vertex="1">
                    <mxGeometry y="182" width="140" height="26" as="geometry"/>
                </mxCell>
                <mxCell id="C_AhAHpW7zwYLXLOmo2u-29" value="MotorCmd.msg" style="text;strokeColor=none;fillColor=none;align=left;verticalAlign=top;spacingLeft=4;spacingRight=4;overflow=hidden;rotatable=0;points=[[0,0.5],[1,0.5]];portConstraint=eastwest;" parent="C_AhAHpW7zwYLXLOmo2u-20" vertex="1">
                    <mxGeometry y="208" width="140" height="26" as="geometry"/>
                </mxCell>
                <mxCell id="C_AhAHpW7zwYLXLOmo2u-28" value="MotorState.msg" style="text;strokeColor=none;fillColor=none;align=left;verticalAlign=top;spacingLeft=4;spacingRight=4;overflow=hidden;rotatable=0;points=[[0,0.5],[1,0.5]];portConstraint=eastwest;" parent="C_AhAHpW7zwYLXLOmo2u-20" vertex="1">
                    <mxGeometry y="234" width="140" height="26" as="geometry"/>
                </mxCell>
                <mxCell id="C_AhAHpW7zwYLXLOmo2u-30" value="" style="edgeStyle=orthogonalEdgeStyle;rounded=1;orthogonalLoop=1;jettySize=auto;html=1;entryX=0;entryY=0.5;entryDx=0;entryDy=0;" parent="1" source="C_AhAHpW7zwYLXLOmo2u-1" target="C_AhAHpW7zwYLXLOmo2u-31" edge="1">
                    <mxGeometry relative="1" as="geometry">
                        <mxPoint x="140" y="200.0344827586208" as="sourcePoint"/>
                        <mxPoint x="250" y="300.0344827586208" as="targetPoint"/>
                        <Array as="points">
                            <mxPoint x="180" y="190"/>
                            <mxPoint x="180" y="340"/>
                        </Array>
                    </mxGeometry>
                </mxCell>
                <mxCell id="C_AhAHpW7zwYLXLOmo2u-31" value="realsense_ros" style="rounded=1;whiteSpace=wrap;html=1;" parent="1" vertex="1">
                    <mxGeometry x="240" y="320" width="160" height="40" as="geometry"/>
                </mxCell>
                <mxCell id="C_AhAHpW7zwYLXLOmo2u-32" value="&lt;p class=&quot;p1&quot; style=&quot;margin: 0px ; font-stretch: normal ; line-height: normal&quot;&gt;velodyne&lt;/p&gt;" style="rounded=1;whiteSpace=wrap;html=1;" parent="1" vertex="1">
                    <mxGeometry x="240" y="370" width="160" height="40" as="geometry"/>
                </mxCell>
                <mxCell id="C_AhAHpW7zwYLXLOmo2u-34" value="" style="edgeStyle=orthogonalEdgeStyle;rounded=1;orthogonalLoop=1;jettySize=auto;html=1;" parent="1" source="C_AhAHpW7zwYLXLOmo2u-1" target="C_AhAHpW7zwYLXLOmo2u-32" edge="1">
                    <mxGeometry relative="1" as="geometry">
                        <mxPoint x="140" y="200.0344827586208" as="sourcePoint"/>
                        <mxPoint x="250" y="350" as="targetPoint"/>
                        <Array as="points">
                            <mxPoint x="180" y="190"/>
                            <mxPoint x="180" y="390"/>
                        </Array>
                    </mxGeometry>
                </mxCell>
                <mxCell id="2" value="&lt;p class=&quot;p1&quot; style=&quot;margin: 0px ; font-stretch: normal ; line-height: normal&quot;&gt;lslidar_c16&lt;/p&gt;" style="rounded=1;whiteSpace=wrap;html=1;" parent="1" vertex="1">
                    <mxGeometry x="240" y="420" width="160" height="40" as="geometry"/>
                </mxCell>
                <mxCell id="3" value="" style="edgeStyle=orthogonalEdgeStyle;rounded=1;orthogonalLoop=1;jettySize=auto;html=1;" parent="1" source="C_AhAHpW7zwYLXLOmo2u-1" target="2" edge="1">
                    <mxGeometry relative="1" as="geometry">
                        <mxPoint x="140" y="200" as="sourcePoint"/>
                        <mxPoint x="250" y="400" as="targetPoint"/>
                        <Array as="points">
                            <mxPoint x="180" y="190"/>
                            <mxPoint x="180" y="440"/>
                        </Array>
                    </mxGeometry>
                </mxCell>
                <mxCell id="4" value="&lt;p class=&quot;p1&quot; style=&quot;margin: 0px ; font-stretch: normal ; line-height: normal&quot;&gt;advanced_navigation_driver&lt;/p&gt;" style="rounded=1;whiteSpace=wrap;html=1;" vertex="1" parent="1">
                    <mxGeometry x="240" y="470" width="160" height="40" as="geometry"/>
                </mxCell>
                <mxCell id="5" value="" style="edgeStyle=orthogonalEdgeStyle;rounded=1;orthogonalLoop=1;jettySize=auto;html=1;" edge="1" parent="1" source="C_AhAHpW7zwYLXLOmo2u-1" target="4">
                    <mxGeometry relative="1" as="geometry">
                        <mxPoint x="140" y="200" as="sourcePoint"/>
                        <mxPoint x="250" y="450" as="targetPoint"/>
                        <Array as="points">
                            <mxPoint x="180" y="190"/>
                            <mxPoint x="180" y="490"/>
                        </Array>
                    </mxGeometry>
                </mxCell>
                <mxCell id="6" value="" style="edgeStyle=orthogonalEdgeStyle;rounded=1;orthogonalLoop=1;jettySize=auto;html=1;" edge="1" parent="1" source="2" target="7">
                    <mxGeometry relative="1" as="geometry">
                        <Array as="points">
                            <mxPoint x="440" y="440"/>
                            <mxPoint x="440" y="415"/>
                        </Array>
                        <mxPoint x="360" y="150" as="sourcePoint"/>
                        <mxPoint x="510" y="370" as="targetPoint"/>
                    </mxGeometry>
                </mxCell>
                <mxCell id="7" value="都是16线激光雷达，看着选就行" style="rounded=1;whiteSpace=wrap;html=1;" vertex="1" parent="1">
                    <mxGeometry x="460" y="390" width="120" height="50" as="geometry"/>
                </mxCell>
                <mxCell id="9" value="" style="edgeStyle=orthogonalEdgeStyle;rounded=1;orthogonalLoop=1;jettySize=auto;html=1;exitX=1;exitY=0.5;exitDx=0;exitDy=0;" edge="1" parent="1" source="C_AhAHpW7zwYLXLOmo2u-32" target="7">
                    <mxGeometry relative="1" as="geometry">
                        <Array as="points">
                            <mxPoint x="440" y="390"/>
                            <mxPoint x="440" y="415"/>
                        </Array>
                        <mxPoint x="410" y="450" as="sourcePoint"/>
                        <mxPoint x="520" y="425" as="targetPoint"/>
                    </mxGeometry>
                </mxCell>
            </root>
        </mxGraphModel>
    </diagram>
</mxfile>